<!DOCTYPE svg PUBLIC "-//W3C//DTD SVG 1.1//EN" "http://www.w3.org/Graphics/SVG/1.1/DTD/svg11.dtd">
<!-- Uploaded to: SVG Repo, www.svgrepo.com, Transformed by: SVG Repo Mixer Tools -->
<svg fill="#00cf5d" height="800px" width="800px" version="1.1" id="Layer_1" xmlns="http://www.w3.org/2000/svg" xmlns:xlink="http://www.w3.org/1999/xlink" viewBox="0 0 511.998 511.998" xml:space="preserve" stroke="#00cf5d" stroke-width="0.0051199800000000005">
<g id="SVGRepo_bgCarrier" stroke-width="0"/>
<g id="SVGRepo_tracerCarrier" stroke-linecap="round" stroke-linejoin="round"/>
<g id="SVGRepo_iconCarrier"> <g> <g> <path d="M416.85,312.867c28.195-2.234,49.378-10.779,64.41-25.987c26.517-26.829,31.396-70.581,30.672-132.478l-0.204-17.447 H320.235c-3.036-17.828-12.651-28.574-20.011-36.789c-7.466-8.331-11.971-13.36-11.971-24.997s4.505-16.666,11.971-24.997 l-26.296-23.561c-8.854,9.882-20.981,23.417-20.981,48.557s12.128,38.674,20.981,48.557c4.37,4.876,7.714,8.628,9.746,13.228 h-41.111c-3.036-17.828-12.651-28.574-20.011-36.789c-7.466-8.331-11.971-13.36-11.971-24.996 c0-11.637,4.505-16.666,11.971-24.997c8.854-9.882,20.981-23.417,20.981-48.557h-35.306c0,11.637-4.505,16.666-11.971,24.997 c-8.854,9.882-20.981,23.417-20.981,48.557s12.128,38.674,20.981,48.557c4.37,4.876,7.714,8.628,9.746,13.228H5.884v75.119 c0,46.706,14.52,91.357,41.99,129.13l54.566,75.03H0v47.074c0,25.957,21.118,47.074,47.074,47.074h353.058 c25.957,0,47.074-21.118,47.074-47.074v-47.074H344.763l54.567-75.03C405.927,332.134,411.769,322.663,416.85,312.867z M441.321,212.074v-39.813h35.344c-0.397,42.472-4.775,73.874-20.516,89.8c-5.897,5.967-13.753,10.189-23.937,12.817 C438.229,254.694,441.321,233.603,441.321,212.074z M411.901,451.539v11.769c0,6.489-5.279,11.769-11.769,11.769H47.074 c-6.489,0-11.769-5.279-11.769-11.769v-11.769H411.901z M301.108,416.233h-155.01l-69.67-95.795 C53.375,288.74,41.19,251.268,41.19,212.074v-39.813h360.043h4.784v39.813c0,39.193-12.185,76.665-35.237,108.364L301.108,416.233 z"/> </g> </g> <g> <g> <polygon points="288.967,238.629 264.003,263.592 293.888,293.477 264.003,323.362 288.967,348.326 343.816,293.477 "/> </g> </g> <g> <g> <polygon points="185.404,263.592 160.439,238.629 105.59,293.477 160.439,348.326 185.404,323.362 155.518,293.477 "/> </g> </g> <g> <g> <polygon points="223.512,213.451 189.817,373.504 225.895,373.504 259.591,213.451 "/> </g> </g> </g>
</svg>